<?xml version="1.0" encoding="UTF-8"?>
<svg width="160px" height="40px" viewBox="0 0 160 40" version="1.1" xmlns="http://www.w3.org/2000/svg" xmlns:xlink="http://www.w3.org/1999/xlink">
    <!-- Generator: Sketch 51.3 (57544) - http://www.bohemiancoding.com/sketch -->
    <title>anuefund_logo</title>
    <desc>Created with Sketch.</desc>
    <defs>
        <polygon id="path-1" points="0 0.5738 35.713205 0.5738 35.713205 36.1371333 0 36.1371333"></polygon>
        <polygon id="path-3" points="0 40 159.961841 40 159.961841 0 0 0"></polygon>
    </defs>
    <g id="_Symbol" stroke="none" stroke-width="1" fill="none" fill-rule="evenodd">
        <g id="Symbol/-anue_fund_color">
            <g id="anuefund_logo">
                <path d="M22.9148117,39.4704667 L19.5501255,39.4704667 C19.5501255,30.5944667 26.8010042,23.3751333 35.7134728,23.3751333 L35.7134728,26.7251333 C28.6560669,26.7251333 22.9148117,32.4424667 22.9148117,39.4704667" id="Fill-1" fill="#FFB43E"></path>
                <g id="Group-5" transform="translate(0.000000, 3.333333)">
                    <mask id="mask-2" fill="white">
                        <use xlink:href="#path-1"></use>
                    </mask>
                    <g id="Clip-4"></g>
                    <path d="M3.21646862,36.1371333 L-0.000267782427,36.1371333 C-0.000267782427,16.5278 16.0204854,0.5738 35.713205,0.5738 L35.713205,3.7778 C17.7945439,3.7778 3.21646862,18.2931333 3.21646862,36.1371333" id="Fill-3" fill="#54B5C6" mask="url(#mask-2)"></path>
                </g>
                <path d="M15.5896904,39.4704667 L12.1647531,39.4704667 C12.1647531,26.5398 22.7287699,16.0211333 35.7135397,16.0211333 L35.7135397,19.4304667 C24.6179749,19.4304667 15.5896904,28.4204667 15.5896904,39.4704667" id="Fill-6" fill="#E03F19"></path>
                <path d="M44.0127866,31.3734667 L42.3063431,31.7188 C42.6189791,32.8688 42.9309456,34.3181333 43.2435816,36.0428 L44.9493556,35.6754667 C44.6373891,34.1341333 44.3247531,32.6848 44.0127866,31.3734667" id="Fill-8" fill="#000000"></path>
                <path d="M42.6304268,9.76053333 C42.6304268,8.44453333 43.5121004,6.77386667 45.5057406,6.77386667 C47.4766192,6.77386667 48.4426444,8.32053333 48.4426444,9.7192 C48.4426444,10.8465333 47.7075816,12.6858667 45.5264937,12.6858667 C43.427749,12.6858667 42.6304268,10.8465333 42.6304268,9.76053333 M48.4004686,14.2732 L48.4426444,14.2732 L48.4426444,15.5265333 L51.9251548,15.5265333 L51.9251548,3.93253333 L48.4426444,3.93253333 L48.4426444,5.16453333 L48.4004686,5.16453333 C47.9800502,4.45453333 46.9109289,3.53586667 45.0016402,3.53586667 C41.8967029,3.53586667 39.1499247,5.91786667 39.1499247,9.7192 C39.1499247,13.0405333 41.30959,15.9232 45.0016402,15.9232 C46.3659916,15.9232 47.8126862,15.4012 48.4004686,14.2732" id="Fill-10" fill="#000000"></path>
                <path d="M62.8539582,4.53853333 C62.2253389,3.99586667 60.9868452,3.53586667 59.8748787,3.53586667 C57.7988954,3.53586667 57.0645021,4.6012 56.7070126,5.16453333 L56.6661757,5.16453333 L56.6661757,3.93253333 L53.4126192,3.93253333 L53.4126192,15.5265333 L56.8964686,15.5265333 L56.8964686,9.21853333 C56.8964686,8.5072 56.8964686,6.7932 58.8901088,6.7932 C60.7143766,6.7932 60.7143766,8.3832 60.7143766,9.19786667 L60.7143766,15.5265333 L64.1962176,15.5265333 L64.1962176,8.2772 C64.1962176,6.00053333 63.4825774,5.08253333 62.8539582,4.53853333" id="Fill-12" fill="#000000"></path>
                <path d="M70.0490042,15.9014667 C70.9320167,15.9014667 72.3566192,15.7774667 73.0709289,14.2934667 L73.1131046,14.2934667 L73.1131046,15.5268 L76.4048201,15.5268 L76.4048201,3.9328 L72.9236485,3.9328 L72.9236485,10.3041333 C72.9236485,12.1408 71.9368703,12.6641333 70.9320167,12.6641333 C69.0628954,12.6641333 69.0628954,11.1394667 69.0628954,10.3468 L69.0628954,3.9328 L65.5817238,3.9328 L65.5817238,10.8694667 C65.5817238,12.4568 65.7055732,13.2914667 66.6307615,14.4401333 C67.6583766,15.7341333 69.3367029,15.9014667 70.0490042,15.9014667" id="Fill-14" fill="#000000"></path>
                <path d="M83.7594644,6.46073333 C85.5636485,6.46073333 86.2558661,7.7554 86.4031464,8.44473333 L81.1164519,8.44473333 C81.2644017,7.7554 81.9559498,6.46073333 83.7594644,6.46073333 M83.8023096,12.9780667 C82.4392971,12.9780667 81.2838159,12.1627333 81.0749456,10.7860667 L89.8019749,10.7860667 C89.8428117,10.5140667 89.8856569,10.3247333 89.8856569,9.86606667 C89.8856569,6.3354 87.2848201,3.53606667 83.7393808,3.53606667 C80.1939414,3.53606667 77.6352803,6.52273333 77.6352803,9.76073333 C77.6352803,13.2074 80.46641,15.9014 83.8023096,15.9014 C84.9979582,15.9014 86.151431,15.5474 87.1154477,14.8587333 C88.1022259,14.1894 88.9209707,13.1860667 89.4853222,11.8914 L85.9204686,11.8914 C85.4377908,12.4994 84.871431,12.9780667 83.8023096,12.9780667" id="Fill-16" fill="#000000"></path>
                <path d="M50.0470628,25.8067333 L51.4402008,24.5420667 C50.2632971,23.0467333 49.0134226,21.5974 47.6919163,20.2174 L47.8840502,19.5960667 L46.1782762,19.0667333 C45.0007029,21.2747333 43.5352636,23.0927333 41.7812887,24.5420667 L42.6221255,26.2440667 C43.0545941,25.9447333 43.4388619,25.6227333 43.7514979,25.2547333 L43.7514979,26.4274 L45.5295732,26.4274 L45.5295732,28.4980667 L42.3342594,28.4980667 L42.3342594,30.1080667 L45.5295732,30.1080667 L45.5295732,37.0327333 L41.8776904,37.5607333 L42.2378577,39.2867333 L50.6957657,38.0214 L50.8878996,36.3194 L47.3076485,36.8480667 L47.3076485,30.1080667 L50.599364,30.1080667 L50.599364,28.4980667 L47.3076485,28.4980667 L47.3076485,26.4274 L49.1098243,26.4274 L49.1098243,24.8174 L44.4002008,24.8174 C45.4090711,23.7367333 46.1548452,22.6780667 46.6582762,21.6667333 C47.9081506,23.0467333 49.037523,24.4267333 50.0470628,25.8067333" id="Fill-18" fill="#000000"></path>
                <path d="M47.8569372,35.422 L49.5392803,35.8593333 C49.9228787,34.5933333 50.3312469,33.2133333 50.7643849,31.7186667 L49.0820418,31.3733333 C48.7700753,32.6853333 48.3610377,34.042 47.8569372,35.422" id="Fill-20" fill="#000000"></path>
                <path d="M66.6206527,32.5466667 L81.1813222,32.5466667 L75.6308619,34.2493333 L75.6308619,37.538 C75.6308619,38.1133333 75.2465941,38.3666667 74.6942929,38.3666667 C73.7563849,38.3666667 72.171113,38.2513333 70.8014059,38.136 L71.3061757,39.908 C72.3632469,39.9773333 73.4685188,40 74.7177238,40 C76.6638326,40 77.6968033,39.1253333 77.6968033,37.5606667 L77.6968033,35.238 L85.7704435,32.4546667 L85.7704435,30.9133333 L66.6206527,30.9133333 L66.6206527,32.5466667 Z" id="Fill-22" fill="#000000"></path>
                <mask id="mask-4" fill="white">
                    <use xlink:href="#path-3"></use>
                </mask>
                <g id="Clip-25"></g>
                <path d="M53.6716318,31.626 L60.2309623,31.626 L60.2309623,27.4166667 L53.6716318,27.4166667 L53.6716318,31.626 Z M53.6716318,33.26 L61.6281172,33.2546667 C61.8992469,33.2546667 62.1161506,33.0413333 62.1295397,32.7746667 L62.1295397,26.3046667 C62.1288703,26.0353333 61.9159833,25.8206667 61.6488703,25.8066667 L53.6716318,25.8066667 L53.6716318,21.85 L63.1625105,21.85 L63.1625105,20.2173333 L52.3032636,20.2173333 C52.0241004,20.2173333 51.7978243,20.4426667 51.7978243,20.7206667 L51.7978243,38.6906667 C51.7978243,38.9686667 52.0241004,39.1946667 52.3032636,39.1946667 L63.4269456,39.1946667 L63.4269456,37.5606667 L53.6716318,37.5606667 L53.6716318,33.26 Z" id="Fill-24" fill="#000000" mask="url(#mask-4)"></path>
                <path d="M70.7528033,28.13 L82.5740586,28.13 L82.5740586,26.152 L70.7528033,26.152 L70.7528033,28.13 Z M84.1352301,29.672 C84.4143933,29.672 84.6413389,29.446 84.6413389,29.168 L84.6413389,25.1373333 C84.6413389,24.8593333 84.4150628,24.634 84.1352301,24.634 L69.1923013,24.634 C68.9131381,24.634 68.6868619,24.8593333 68.6868619,25.1373333 L68.6868619,29.168 C68.6868619,29.446 68.9138075,29.672 69.1923013,29.672 L84.1352301,29.672 Z" id="Fill-26" fill="#000000" mask="url(#mask-4)"></path>
                <polygon id="Fill-27" fill="#000000" mask="url(#mask-4)" points="77.6133891 19.0665333 75.7154812 19.0665333 75.7154812 21.7585333 65.9715481 21.7585333 65.9715481 23.3685333 87.4523849 23.3685333 87.4523849 21.7585333 77.6133891 21.7585333"></polygon>
                <path d="M89.7286695,37.9952667 L90.4791297,39.8959333 C93.697205,39.3626 96.4326025,38.7599333 98.7074142,38.0879333 L97.7634812,36.4419333 C95.609841,36.9752667 92.9474142,37.5086 89.7286695,37.9952667" id="Fill-28" fill="#000000" mask="url(#mask-4)"></path>
                <path d="M102.579414,38.0876667 C105.290042,38.5743333 108.02477,39.177 110.807699,39.8956667 L111.558159,37.995 C108.847531,37.393 106.136904,36.8823333 103.426276,36.4423333 L102.579414,38.0876667 Z" id="Fill-29" fill="#000000" mask="url(#mask-4)"></path>
                <path d="M94.5374393,15.5268 L96.728569,15.5268 L96.728569,5.89613333 L98.7724184,5.89613333 L98.7724184,3.9028 L96.728569,3.9028 L96.728569,3.33613333 C96.728569,2.51813333 97.3183598,1.99346667 98.7724184,1.99346667 L98.7724184,0.000133333333 C97.4870628,0.000133333333 96.8765188,0.0628 95.9278996,0.629466667 C95.0221255,1.23813333 94.5374393,2.09813333 94.5374393,3.33613333 L94.5374393,3.9028 L93.5051381,3.9028 L93.5051381,5.89613333 L94.5374393,5.89613333 L94.5374393,15.5268 Z" id="Fill-30" fill="#000000" mask="url(#mask-4)"></path>
                <path d="M101.406527,14.6664667 C102.249372,15.4011333 103.408201,15.8204667 104.735732,15.8204667 C106.210544,15.8204667 107.580251,15.2751333 108.170042,14.2678 L108.212218,14.2678 L108.212218,15.5271333 L110.213891,15.5271333 L110.213891,3.90246667 L108.022092,3.90246667 L108.022092,10.1344667 C108.022092,12.6731333 106.778912,13.8271333 104.967364,13.8271333 C103.345272,13.8271333 102.059916,13.0718 102.059916,10.1971333 L102.059916,3.90246667 L99.8681172,3.90246667 L99.8681172,10.1971333 C99.8681172,12.5264667 100.437155,13.8271333 101.406527,14.6664667" id="Fill-31" fill="#000000" mask="url(#mask-4)"></path>
                <path d="M113.943833,9.1902 C113.943833,6.86086667 115.187013,5.58153333 117.019983,5.58153333 C119.927431,5.58153333 119.927431,8.30886667 119.927431,9.21153333 L119.927431,15.5268667 L122.11923,15.5268667 L122.11923,8.64486667 C122.097808,7.34353333 121.845423,6.42086667 121.38149,5.66486667 C120.538644,4.3642 119.063833,3.5882 117.251615,3.5882 C116.788351,3.5882 115.01831,3.5882 113.838728,5.14086667 L113.796552,5.14086667 L113.796552,3.90286667 L111.752703,3.90286667 L111.752703,15.5268667 L113.943833,15.5268667 L113.943833,9.1902 Z" id="Fill-32" fill="#000000" mask="url(#mask-4)"></path>
                <path d="M129.451782,5.58153333 C131.70651,5.58153333 133.497305,7.2602 133.497305,9.73553333 C133.497305,11.9602 131.727264,13.8275333 129.431029,13.8275333 C127.113372,13.8275333 125.449105,11.8342 125.449105,9.73553333 C125.449105,7.9102 126.755213,5.58153333 129.451782,5.58153333 M129.325925,15.8208667 C131.032368,15.8208667 132.528603,15.1495333 133.45513,13.8695333 L133.497305,13.8695333 L133.497305,15.5268667 L135.519732,15.5268667 L135.519732,0.0002 L133.329272,0.0002 L133.329272,5.32953333 L133.287096,5.32953333 C132.444251,4.25953333 130.948017,3.5882 129.325925,3.5882 C125.19605,3.5882 123.257975,6.9242 123.257975,9.75686667 C123.257975,12.8202 125.449105,15.8208667 129.325925,15.8208667" id="Fill-33" fill="#000000" mask="url(#mask-4)"></path>
                <path d="M94.3511297,28.9333333 L107.031967,28.9333333 L107.031967,27.7513333 L94.3511297,27.7513333 L94.3511297,28.9333333 Z M94.3511297,31.7373333 L107.031967,31.7373333 L107.031967,30.4626667 L94.3511297,30.4626667 L94.3511297,31.7373333 Z M94.3511297,34.542 L107.031967,34.542 L107.031967,33.2906667 L94.3511297,33.2906667 L94.3511297,34.542 Z M92.8723013,26.222 C92.5931381,26.222 92.3668619,26.4473333 92.3668619,26.7253333 L92.3668619,35.5906667 C92.3668619,35.8686667 92.5931381,36.0946667 92.8723013,36.0946667 L108.510795,36.0946667 C108.789958,36.0946667 109.016904,35.8686667 109.016904,35.5906667 L109.016904,26.7253333 C109.016904,26.4473333 108.789958,26.222 108.510795,26.222 L92.8723013,26.222 Z" id="Fill-34" fill="#000000" mask="url(#mask-4)"></path>
                <path d="M93.0443515,23.51 L96.8200837,23.51 L96.8200837,21.3313333 L93.0443515,21.3313333 L93.0443515,23.51 Z M98.803682,23.51 L102.579414,23.51 L102.579414,21.3313333 L98.803682,21.3313333 L98.803682,23.51 Z M104.563682,23.51 L108.338745,23.51 L108.338745,21.3313333 L104.563682,21.3313333 L104.563682,23.51 Z M91.565523,25.0393333 L109.817573,25.0393333 C110.097406,25.0393333 110.323682,24.814 110.323682,24.536 L110.323682,20.3053333 C110.323682,20.0273333 110.097406,19.802 109.817573,19.802 L91.565523,19.802 C91.2863598,19.802 91.0594142,20.0273333 91.0594142,20.3053333 L91.0594142,24.536 C91.0594142,24.814 91.2863598,25.0393333 91.565523,25.0393333 Z" id="Fill-35" fill="#000000" mask="url(#mask-4)"></path>
                <path d="M123.852921,32.3865333 L123.852921,34.1018667 L118.359364,34.1018667 C119.642042,33.3138667 120.706477,32.4325333 121.578109,31.4598667 L128.402544,31.4598667 C129.346477,32.5492 130.31451,33.4292 131.330745,34.1018667 L125.837188,34.1018667 L125.837188,32.3865333 L123.852921,32.3865333 Z M120.077188,29.8372 L129.806393,29.8372 L129.806393,28.4005333 L120.077188,28.4005333 L120.077188,29.8372 Z M120.077188,26.8472 L129.806393,26.8472 L129.806393,25.4105333 L120.077188,25.4105333 L120.077188,26.8472 Z M120.077188,23.8572 L129.806393,23.8572 L129.806393,22.4205333 L120.077188,22.4205333 L120.077188,23.8572 Z M131.694259,35.7238667 L131.694259,34.3565333 C132.710494,35.0285333 133.823799,35.5618667 135.009406,36.0018667 L136.146812,34.3565333 C133.751498,33.5918667 131.984134,32.6185333 130.846728,31.4598667 L135.759866,31.4598667 L135.759866,29.8372 L131.790661,29.8372 L131.790661,22.4205333 L135.106477,22.4205333 L135.106477,20.7985333 L131.790661,20.7985333 L131.790661,18.9678667 L129.806393,18.9678667 L129.806393,20.7985333 L120.077188,20.7985333 L120.077188,18.9678667 L118.092921,18.9678667 L118.092921,20.7985333 L114.777105,20.7985333 L114.777105,22.4205333 L118.092921,22.4205333 L118.092921,29.8372 L114.123715,29.8372 L114.123715,31.4598667 L119.133925,31.4598667 C117.947649,32.5492 116.132753,33.5452 113.73677,34.4492 L114.874176,36.0945333 C116.011582,35.6085333 117.052586,35.0518667 117.995849,34.4492 L117.995849,35.7238667 L123.852921,35.7238667 L123.852921,37.5312 L114.777105,37.5312 L114.777105,39.1772 L135.106477,39.1772 L135.106477,37.5312 L125.837188,37.5312 L125.837188,35.7238667 L131.694259,35.7238667 Z" id="Fill-36" fill="#000000" mask="url(#mask-4)"></path>
                <path d="M143.141958,26.129 C145.537941,24.6223333 147.522209,23.0463333 149.095431,21.4243333 C150.789155,23.2316667 152.652921,24.8083333 154.661958,26.129 L143.141958,26.129 Z M156.442711,34.3043333 L154.936435,33.379 L152.423297,37.439 L150.039364,37.439 L150.039364,32.2936667 L157.686561,32.2936667 L157.686561,30.5556667 L150.039364,30.5556667 L150.039364,27.8443333 L155.435849,27.8443333 L155.435849,26.5923333 C156.500954,27.241 157.63836,27.821 158.823967,28.3076667 L159.962042,26.5923333 C156.307481,25.2016667 153.136937,23.0003333 150.42631,19.9636667 L150.789155,19.431 L148.804887,18.805 C146.360703,21.8183333 142.803213,24.391 138.132418,26.4996667 L139.172753,28.3076667 C140.431331,27.705 141.592837,27.1023333 142.657941,26.4996667 L142.657941,27.8443333 L148.054427,27.8443333 L148.054427,30.5556667 L140.40723,30.5556667 L140.40723,32.2936667 L148.054427,32.2936667 L148.054427,37.439 L145.670494,37.439 L143.158025,33.379 L141.651079,34.3043333 L143.591833,37.439 L138.785808,37.439 L138.785808,39.177 L159.210912,39.177 L159.210912,37.439 L154.502628,37.439 L156.442711,34.3043333 Z" id="Fill-37" fill="#000000" mask="url(#mask-4)"></path>
            </g>
        </g>
    </g>
</svg>